<mxfile host="65bd71144e">
    <diagram name="Page-1" id="n3dU5I69qXWTIXmzhkQk">
        <mxGraphModel dx="752" dy="535" grid="0" gridSize="10" guides="1" tooltips="1" connect="1" arrows="1" fold="1" page="1" pageScale="1" pageWidth="850" pageHeight="1100" math="0" shadow="0">
            <root>
                <mxCell id="0"/>
                <mxCell id="1" parent="0"/>
                <mxCell id="r_bTo3v6G659y4a5i27W-10" style="edgeStyle=orthogonalEdgeStyle;rounded=0;orthogonalLoop=1;jettySize=auto;html=1;exitX=0.5;exitY=1;exitDx=0;exitDy=0;entryX=0.5;entryY=0;entryDx=0;entryDy=0;" parent="1" source="r_bTo3v6G659y4a5i27W-1" target="r_bTo3v6G659y4a5i27W-2" edge="1">
                    <mxGeometry relative="1" as="geometry"/>
                </mxCell>
                <mxCell id="r_bTo3v6G659y4a5i27W-1" value="Initialization" style="rounded=0;whiteSpace=wrap;html=1;fontSize=14;" parent="1" vertex="1">
                    <mxGeometry x="70" y="45" width="100" height="40" as="geometry"/>
                </mxCell>
                <mxCell id="r_bTo3v6G659y4a5i27W-11" style="edgeStyle=orthogonalEdgeStyle;rounded=0;orthogonalLoop=1;jettySize=auto;html=1;exitX=0.5;exitY=1;exitDx=0;exitDy=0;entryX=0.5;entryY=0;entryDx=0;entryDy=0;" parent="1" source="r_bTo3v6G659y4a5i27W-2" target="r_bTo3v6G659y4a5i27W-8" edge="1">
                    <mxGeometry relative="1" as="geometry"/>
                </mxCell>
                <mxCell id="r_bTo3v6G659y4a5i27W-2" value="Fitness evaluation" style="rounded=0;whiteSpace=wrap;html=1;fontSize=14;" parent="1" vertex="1">
                    <mxGeometry x="60" y="125" width="120" height="40" as="geometry"/>
                </mxCell>
                <mxCell id="r_bTo3v6G659y4a5i27W-13" style="edgeStyle=orthogonalEdgeStyle;rounded=0;orthogonalLoop=1;jettySize=auto;html=1;exitX=0.5;exitY=1;exitDx=0;exitDy=0;entryX=0.5;entryY=0;entryDx=0;entryDy=0;" parent="1" source="r_bTo3v6G659y4a5i27W-3" target="r_bTo3v6G659y4a5i27W-4" edge="1">
                    <mxGeometry relative="1" as="geometry"/>
                </mxCell>
                <mxCell id="r_bTo3v6G659y4a5i27W-17" style="edgeStyle=orthogonalEdgeStyle;rounded=0;orthogonalLoop=1;jettySize=auto;html=1;exitX=1;exitY=0.5;exitDx=0;exitDy=0;entryX=0;entryY=0.5;entryDx=0;entryDy=0;" parent="1" source="r_bTo3v6G659y4a5i27W-3" target="r_bTo3v6G659y4a5i27W-9" edge="1">
                    <mxGeometry relative="1" as="geometry"/>
                </mxCell>
                <mxCell id="r_bTo3v6G659y4a5i27W-3" value="Stop?" style="rhombus;whiteSpace=wrap;html=1;fontSize=14;" parent="1" vertex="1">
                    <mxGeometry x="80" y="284" width="80" height="41" as="geometry"/>
                </mxCell>
                <mxCell id="r_bTo3v6G659y4a5i27W-14" style="edgeStyle=orthogonalEdgeStyle;rounded=0;orthogonalLoop=1;jettySize=auto;html=1;exitX=0.5;exitY=1;exitDx=0;exitDy=0;entryX=0.5;entryY=0;entryDx=0;entryDy=0;" parent="1" source="r_bTo3v6G659y4a5i27W-4" target="r_bTo3v6G659y4a5i27W-5" edge="1">
                    <mxGeometry relative="1" as="geometry"/>
                </mxCell>
                <mxCell id="r_bTo3v6G659y4a5i27W-4" value="Parent Selection" style="rounded=0;whiteSpace=wrap;html=1;fontSize=14;" parent="1" vertex="1">
                    <mxGeometry x="60" y="365" width="120" height="39" as="geometry"/>
                </mxCell>
                <mxCell id="r_bTo3v6G659y4a5i27W-15" style="edgeStyle=orthogonalEdgeStyle;rounded=0;orthogonalLoop=1;jettySize=auto;html=1;exitX=0.5;exitY=1;exitDx=0;exitDy=0;entryX=0.5;entryY=0;entryDx=0;entryDy=0;" parent="1" source="r_bTo3v6G659y4a5i27W-5" target="r_bTo3v6G659y4a5i27W-7" edge="1">
                    <mxGeometry relative="1" as="geometry"/>
                </mxCell>
                <mxCell id="r_bTo3v6G659y4a5i27W-5" value="Generate Offspring" style="rounded=0;whiteSpace=wrap;html=1;fontSize=14;" parent="1" vertex="1">
                    <mxGeometry x="50" y="445" width="140" height="39" as="geometry"/>
                </mxCell>
                <mxCell id="r_bTo3v6G659y4a5i27W-16" style="edgeStyle=orthogonalEdgeStyle;rounded=0;orthogonalLoop=1;jettySize=auto;html=1;exitX=1;exitY=0.5;exitDx=0;exitDy=0;entryX=1;entryY=0.5;entryDx=0;entryDy=0;" parent="1" source="r_bTo3v6G659y4a5i27W-7" target="r_bTo3v6G659y4a5i27W-2" edge="1">
                    <mxGeometry relative="1" as="geometry">
                        <Array as="points">
                            <mxPoint x="320" y="545"/>
                            <mxPoint x="320" y="145"/>
                        </Array>
                    </mxGeometry>
                </mxCell>
                <mxCell id="r_bTo3v6G659y4a5i27W-7" value="Environment Selection" style="rounded=0;whiteSpace=wrap;html=1;fontSize=14;" parent="1" vertex="1">
                    <mxGeometry x="40" y="525" width="160" height="40" as="geometry"/>
                </mxCell>
                <mxCell id="r_bTo3v6G659y4a5i27W-12" style="edgeStyle=orthogonalEdgeStyle;rounded=0;orthogonalLoop=1;jettySize=auto;html=1;exitX=0.5;exitY=1;exitDx=0;exitDy=0;entryX=0.5;entryY=0;entryDx=0;entryDy=0;" parent="1" source="r_bTo3v6G659y4a5i27W-8" target="r_bTo3v6G659y4a5i27W-3" edge="1">
                    <mxGeometry relative="1" as="geometry"/>
                </mxCell>
                <mxCell id="r_bTo3v6G659y4a5i27W-8" value="Actions Rundown" style="rounded=0;whiteSpace=wrap;html=1;fontSize=14;" parent="1" vertex="1">
                    <mxGeometry x="60" y="205" width="120" height="40" as="geometry"/>
                </mxCell>
                <mxCell id="r_bTo3v6G659y4a5i27W-9" value="Output Result" style="rounded=1;whiteSpace=wrap;html=1;fontSize=14;" parent="1" vertex="1">
                    <mxGeometry x="200" y="285.5" width="95" height="39.5" as="geometry"/>
                </mxCell>
                <mxCell id="r_bTo3v6G659y4a5i27W-24" value="" style="ellipse;whiteSpace=wrap;html=1;aspect=fixed;" parent="1" vertex="1">
                    <mxGeometry x="160" y="680" width="40" height="40" as="geometry"/>
                </mxCell>
                <mxCell id="r_bTo3v6G659y4a5i27W-25" value="" style="ellipse;whiteSpace=wrap;html=1;aspect=fixed;" parent="1" vertex="1">
                    <mxGeometry x="160" y="760" width="40" height="40" as="geometry"/>
                </mxCell>
                <mxCell id="r_bTo3v6G659y4a5i27W-26" value="" style="endArrow=none;dashed=1;html=1;dashPattern=1 3;strokeWidth=2;rounded=0;" parent="1" edge="1">
                    <mxGeometry width="50" height="50" relative="1" as="geometry">
                        <mxPoint x="180" y="870" as="sourcePoint"/>
                        <mxPoint x="180" y="810" as="targetPoint"/>
                    </mxGeometry>
                </mxCell>
                <mxCell id="r_bTo3v6G659y4a5i27W-27" value="" style="ellipse;whiteSpace=wrap;html=1;aspect=fixed;" parent="1" vertex="1">
                    <mxGeometry x="160" y="880" width="40" height="40" as="geometry"/>
                </mxCell>
                <mxCell id="r_bTo3v6G659y4a5i27W-28" value="" style="endArrow=classic;html=1;rounded=0;" parent="1" edge="1">
                    <mxGeometry width="50" height="50" relative="1" as="geometry">
                        <mxPoint x="100" y="699.72" as="sourcePoint"/>
                        <mxPoint x="150" y="699.72" as="targetPoint"/>
                    </mxGeometry>
                </mxCell>
                <mxCell id="r_bTo3v6G659y4a5i27W-29" value="" style="endArrow=classic;html=1;rounded=0;" parent="1" edge="1">
                    <mxGeometry width="50" height="50" relative="1" as="geometry">
                        <mxPoint x="100" y="779.72" as="sourcePoint"/>
                        <mxPoint x="150" y="779.72" as="targetPoint"/>
                    </mxGeometry>
                </mxCell>
                <mxCell id="r_bTo3v6G659y4a5i27W-30" value="" style="endArrow=classic;html=1;rounded=0;" parent="1" edge="1">
                    <mxGeometry width="50" height="50" relative="1" as="geometry">
                        <mxPoint x="100" y="899.72" as="sourcePoint"/>
                        <mxPoint x="150" y="899.72" as="targetPoint"/>
                    </mxGeometry>
                </mxCell>
                <mxCell id="r_bTo3v6G659y4a5i27W-31" value="&lt;u&gt;Input Layer&lt;/u&gt; &lt;br&gt;(30 neurons)" style="text;html=1;strokeColor=none;fillColor=none;align=center;verticalAlign=middle;whiteSpace=wrap;rounded=0;" parent="1" vertex="1">
                    <mxGeometry x="130" y="630" width="100" height="30" as="geometry"/>
                </mxCell>
                <mxCell id="r_bTo3v6G659y4a5i27W-41" value="" style="ellipse;whiteSpace=wrap;html=1;aspect=fixed;" parent="1" vertex="1">
                    <mxGeometry x="300" y="680" width="40" height="40" as="geometry"/>
                </mxCell>
                <mxCell id="r_bTo3v6G659y4a5i27W-42" value="" style="ellipse;whiteSpace=wrap;html=1;aspect=fixed;" parent="1" vertex="1">
                    <mxGeometry x="300" y="760" width="40" height="40" as="geometry"/>
                </mxCell>
                <mxCell id="r_bTo3v6G659y4a5i27W-43" value="" style="endArrow=none;dashed=1;html=1;dashPattern=1 3;strokeWidth=2;rounded=0;" parent="1" edge="1">
                    <mxGeometry width="50" height="50" relative="1" as="geometry">
                        <mxPoint x="320" y="870" as="sourcePoint"/>
                        <mxPoint x="320" y="810" as="targetPoint"/>
                    </mxGeometry>
                </mxCell>
                <mxCell id="r_bTo3v6G659y4a5i27W-44" value="" style="ellipse;whiteSpace=wrap;html=1;aspect=fixed;" parent="1" vertex="1">
                    <mxGeometry x="300" y="880" width="40" height="40" as="geometry"/>
                </mxCell>
                <mxCell id="r_bTo3v6G659y4a5i27W-45" value="" style="endArrow=classic;html=1;rounded=0;" parent="1" edge="1">
                    <mxGeometry width="50" height="50" relative="1" as="geometry">
                        <mxPoint x="210" y="700" as="sourcePoint"/>
                        <mxPoint x="290" y="699.72" as="targetPoint"/>
                    </mxGeometry>
                </mxCell>
                <mxCell id="r_bTo3v6G659y4a5i27W-46" value="" style="endArrow=classic;html=1;rounded=0;" parent="1" edge="1">
                    <mxGeometry width="50" height="50" relative="1" as="geometry">
                        <mxPoint x="210" y="780" as="sourcePoint"/>
                        <mxPoint x="290" y="779.72" as="targetPoint"/>
                    </mxGeometry>
                </mxCell>
                <mxCell id="r_bTo3v6G659y4a5i27W-47" value="" style="endArrow=classic;html=1;rounded=0;" parent="1" edge="1">
                    <mxGeometry width="50" height="50" relative="1" as="geometry">
                        <mxPoint x="210" y="900" as="sourcePoint"/>
                        <mxPoint x="290" y="899.72" as="targetPoint"/>
                    </mxGeometry>
                </mxCell>
                <mxCell id="r_bTo3v6G659y4a5i27W-48" value="" style="endArrow=classic;html=1;rounded=0;" parent="1" edge="1">
                    <mxGeometry width="50" height="50" relative="1" as="geometry">
                        <mxPoint x="210" y="700" as="sourcePoint"/>
                        <mxPoint x="290" y="780" as="targetPoint"/>
                    </mxGeometry>
                </mxCell>
                <mxCell id="r_bTo3v6G659y4a5i27W-49" value="" style="endArrow=classic;html=1;rounded=0;" parent="1" edge="1">
                    <mxGeometry width="50" height="50" relative="1" as="geometry">
                        <mxPoint x="210" y="700" as="sourcePoint"/>
                        <mxPoint x="290" y="840" as="targetPoint"/>
                    </mxGeometry>
                </mxCell>
                <mxCell id="r_bTo3v6G659y4a5i27W-50" value="" style="endArrow=classic;html=1;rounded=0;" parent="1" edge="1">
                    <mxGeometry width="50" height="50" relative="1" as="geometry">
                        <mxPoint x="210" y="700" as="sourcePoint"/>
                        <mxPoint x="290" y="900" as="targetPoint"/>
                    </mxGeometry>
                </mxCell>
                <mxCell id="r_bTo3v6G659y4a5i27W-51" value="" style="endArrow=classic;html=1;rounded=0;" parent="1" edge="1">
                    <mxGeometry width="50" height="50" relative="1" as="geometry">
                        <mxPoint x="210" y="780" as="sourcePoint"/>
                        <mxPoint x="290" y="700" as="targetPoint"/>
                    </mxGeometry>
                </mxCell>
                <mxCell id="r_bTo3v6G659y4a5i27W-52" value="" style="endArrow=classic;html=1;rounded=0;" parent="1" edge="1">
                    <mxGeometry width="50" height="50" relative="1" as="geometry">
                        <mxPoint x="210" y="780" as="sourcePoint"/>
                        <mxPoint x="290" y="840" as="targetPoint"/>
                    </mxGeometry>
                </mxCell>
                <mxCell id="r_bTo3v6G659y4a5i27W-53" value="" style="endArrow=classic;html=1;rounded=0;" parent="1" edge="1">
                    <mxGeometry width="50" height="50" relative="1" as="geometry">
                        <mxPoint x="210" y="780" as="sourcePoint"/>
                        <mxPoint x="290" y="900" as="targetPoint"/>
                    </mxGeometry>
                </mxCell>
                <mxCell id="r_bTo3v6G659y4a5i27W-54" value="" style="endArrow=classic;html=1;rounded=0;" parent="1" edge="1">
                    <mxGeometry width="50" height="50" relative="1" as="geometry">
                        <mxPoint x="210" y="840.28" as="sourcePoint"/>
                        <mxPoint x="290" y="700" as="targetPoint"/>
                    </mxGeometry>
                </mxCell>
                <mxCell id="r_bTo3v6G659y4a5i27W-55" value="" style="endArrow=classic;html=1;rounded=0;" parent="1" edge="1">
                    <mxGeometry width="50" height="50" relative="1" as="geometry">
                        <mxPoint x="210" y="840.28" as="sourcePoint"/>
                        <mxPoint x="290" y="780" as="targetPoint"/>
                    </mxGeometry>
                </mxCell>
                <mxCell id="r_bTo3v6G659y4a5i27W-56" value="" style="endArrow=classic;html=1;rounded=0;" parent="1" edge="1">
                    <mxGeometry width="50" height="50" relative="1" as="geometry">
                        <mxPoint x="210" y="840" as="sourcePoint"/>
                        <mxPoint x="290" y="839.72" as="targetPoint"/>
                    </mxGeometry>
                </mxCell>
                <mxCell id="r_bTo3v6G659y4a5i27W-57" value="" style="endArrow=classic;html=1;rounded=0;" parent="1" edge="1">
                    <mxGeometry width="50" height="50" relative="1" as="geometry">
                        <mxPoint x="210" y="840.28" as="sourcePoint"/>
                        <mxPoint x="290" y="900" as="targetPoint"/>
                    </mxGeometry>
                </mxCell>
                <mxCell id="r_bTo3v6G659y4a5i27W-58" value="" style="endArrow=classic;html=1;rounded=0;" parent="1" edge="1">
                    <mxGeometry width="50" height="50" relative="1" as="geometry">
                        <mxPoint x="210" y="900" as="sourcePoint"/>
                        <mxPoint x="290" y="700" as="targetPoint"/>
                    </mxGeometry>
                </mxCell>
                <mxCell id="r_bTo3v6G659y4a5i27W-59" value="" style="endArrow=classic;html=1;rounded=0;" parent="1" edge="1">
                    <mxGeometry width="50" height="50" relative="1" as="geometry">
                        <mxPoint x="210" y="900" as="sourcePoint"/>
                        <mxPoint x="290" y="780" as="targetPoint"/>
                    </mxGeometry>
                </mxCell>
                <mxCell id="r_bTo3v6G659y4a5i27W-60" value="" style="endArrow=classic;html=1;rounded=0;" parent="1" edge="1">
                    <mxGeometry width="50" height="50" relative="1" as="geometry">
                        <mxPoint x="210" y="900" as="sourcePoint"/>
                        <mxPoint x="290" y="840" as="targetPoint"/>
                    </mxGeometry>
                </mxCell>
                <mxCell id="r_bTo3v6G659y4a5i27W-62" value="K&lt;font style=&quot;font-size: 9px;&quot;&gt;30,10&lt;/font&gt;" style="text;html=1;strokeColor=none;fillColor=none;align=center;verticalAlign=middle;whiteSpace=wrap;rounded=0;" parent="1" vertex="1">
                    <mxGeometry x="220" y="670" width="60" height="30" as="geometry"/>
                </mxCell>
                <mxCell id="r_bTo3v6G659y4a5i27W-63" value="&lt;u&gt;1st Hidden Layer&lt;/u&gt; &lt;br&gt;(10 neurons)" style="text;html=1;strokeColor=none;fillColor=none;align=center;verticalAlign=middle;whiteSpace=wrap;rounded=0;" parent="1" vertex="1">
                    <mxGeometry x="270" y="630" width="100" height="30" as="geometry"/>
                </mxCell>
                <mxCell id="r_bTo3v6G659y4a5i27W-64" value="" style="ellipse;whiteSpace=wrap;html=1;aspect=fixed;" parent="1" vertex="1">
                    <mxGeometry x="413" y="680" width="40" height="40" as="geometry"/>
                </mxCell>
                <mxCell id="r_bTo3v6G659y4a5i27W-65" value="" style="ellipse;whiteSpace=wrap;html=1;aspect=fixed;" parent="1" vertex="1">
                    <mxGeometry x="413" y="760" width="40" height="40" as="geometry"/>
                </mxCell>
                <mxCell id="r_bTo3v6G659y4a5i27W-66" value="" style="endArrow=none;dashed=1;html=1;dashPattern=1 3;strokeWidth=2;rounded=0;" parent="1" edge="1">
                    <mxGeometry width="50" height="50" relative="1" as="geometry">
                        <mxPoint x="433" y="870" as="sourcePoint"/>
                        <mxPoint x="433" y="810" as="targetPoint"/>
                    </mxGeometry>
                </mxCell>
                <mxCell id="r_bTo3v6G659y4a5i27W-67" value="" style="ellipse;whiteSpace=wrap;html=1;aspect=fixed;" parent="1" vertex="1">
                    <mxGeometry x="413" y="880" width="40" height="40" as="geometry"/>
                </mxCell>
                <mxCell id="r_bTo3v6G659y4a5i27W-68" value="" style="endArrow=classic;html=1;rounded=0;" parent="1" edge="1">
                    <mxGeometry width="50" height="50" relative="1" as="geometry">
                        <mxPoint x="353" y="699.72" as="sourcePoint"/>
                        <mxPoint x="403" y="699.72" as="targetPoint"/>
                    </mxGeometry>
                </mxCell>
                <mxCell id="r_bTo3v6G659y4a5i27W-69" value="" style="endArrow=classic;html=1;rounded=0;" parent="1" edge="1">
                    <mxGeometry width="50" height="50" relative="1" as="geometry">
                        <mxPoint x="353" y="779.72" as="sourcePoint"/>
                        <mxPoint x="403" y="779.72" as="targetPoint"/>
                    </mxGeometry>
                </mxCell>
                <mxCell id="r_bTo3v6G659y4a5i27W-70" value="" style="endArrow=classic;html=1;rounded=0;" parent="1" edge="1">
                    <mxGeometry width="50" height="50" relative="1" as="geometry">
                        <mxPoint x="353" y="899.72" as="sourcePoint"/>
                        <mxPoint x="403" y="899.72" as="targetPoint"/>
                    </mxGeometry>
                </mxCell>
                <mxCell id="r_bTo3v6G659y4a5i27W-71" value="&lt;u&gt;2nd Hidden Layer&lt;/u&gt; &lt;br&gt;(10 neurons)" style="text;html=1;strokeColor=none;fillColor=none;align=center;verticalAlign=middle;whiteSpace=wrap;rounded=0;" parent="1" vertex="1">
                    <mxGeometry x="383" y="630" width="100" height="30" as="geometry"/>
                </mxCell>
                <mxCell id="r_bTo3v6G659y4a5i27W-72" value="" style="ellipse;whiteSpace=wrap;html=1;aspect=fixed;" parent="1" vertex="1">
                    <mxGeometry x="560" y="680" width="40" height="40" as="geometry"/>
                </mxCell>
                <mxCell id="r_bTo3v6G659y4a5i27W-73" value="" style="ellipse;whiteSpace=wrap;html=1;aspect=fixed;" parent="1" vertex="1">
                    <mxGeometry x="560" y="760" width="40" height="40" as="geometry"/>
                </mxCell>
                <mxCell id="r_bTo3v6G659y4a5i27W-74" value="" style="endArrow=none;dashed=1;html=1;dashPattern=1 3;strokeWidth=2;rounded=0;" parent="1" edge="1">
                    <mxGeometry width="50" height="50" relative="1" as="geometry">
                        <mxPoint x="580" y="870" as="sourcePoint"/>
                        <mxPoint x="580" y="810" as="targetPoint"/>
                    </mxGeometry>
                </mxCell>
                <mxCell id="r_bTo3v6G659y4a5i27W-75" value="" style="ellipse;whiteSpace=wrap;html=1;aspect=fixed;" parent="1" vertex="1">
                    <mxGeometry x="560" y="880" width="40" height="40" as="geometry"/>
                </mxCell>
                <mxCell id="r_bTo3v6G659y4a5i27W-76" value="" style="endArrow=classic;html=1;rounded=0;" parent="1" edge="1">
                    <mxGeometry width="50" height="50" relative="1" as="geometry">
                        <mxPoint x="470" y="700" as="sourcePoint"/>
                        <mxPoint x="550" y="699.72" as="targetPoint"/>
                    </mxGeometry>
                </mxCell>
                <mxCell id="r_bTo3v6G659y4a5i27W-77" value="" style="endArrow=classic;html=1;rounded=0;" parent="1" edge="1">
                    <mxGeometry width="50" height="50" relative="1" as="geometry">
                        <mxPoint x="470" y="780" as="sourcePoint"/>
                        <mxPoint x="550" y="779.72" as="targetPoint"/>
                    </mxGeometry>
                </mxCell>
                <mxCell id="r_bTo3v6G659y4a5i27W-78" value="" style="endArrow=classic;html=1;rounded=0;" parent="1" edge="1">
                    <mxGeometry width="50" height="50" relative="1" as="geometry">
                        <mxPoint x="470" y="900" as="sourcePoint"/>
                        <mxPoint x="550" y="899.72" as="targetPoint"/>
                    </mxGeometry>
                </mxCell>
                <mxCell id="r_bTo3v6G659y4a5i27W-79" value="" style="endArrow=classic;html=1;rounded=0;" parent="1" edge="1">
                    <mxGeometry width="50" height="50" relative="1" as="geometry">
                        <mxPoint x="470" y="700" as="sourcePoint"/>
                        <mxPoint x="550" y="780" as="targetPoint"/>
                    </mxGeometry>
                </mxCell>
                <mxCell id="r_bTo3v6G659y4a5i27W-80" value="" style="endArrow=classic;html=1;rounded=0;" parent="1" edge="1">
                    <mxGeometry width="50" height="50" relative="1" as="geometry">
                        <mxPoint x="470" y="700" as="sourcePoint"/>
                        <mxPoint x="550" y="840" as="targetPoint"/>
                    </mxGeometry>
                </mxCell>
                <mxCell id="r_bTo3v6G659y4a5i27W-81" value="" style="endArrow=classic;html=1;rounded=0;" parent="1" edge="1">
                    <mxGeometry width="50" height="50" relative="1" as="geometry">
                        <mxPoint x="470" y="700" as="sourcePoint"/>
                        <mxPoint x="550" y="900" as="targetPoint"/>
                    </mxGeometry>
                </mxCell>
                <mxCell id="r_bTo3v6G659y4a5i27W-82" value="" style="endArrow=classic;html=1;rounded=0;" parent="1" edge="1">
                    <mxGeometry width="50" height="50" relative="1" as="geometry">
                        <mxPoint x="470" y="780" as="sourcePoint"/>
                        <mxPoint x="550" y="700" as="targetPoint"/>
                    </mxGeometry>
                </mxCell>
                <mxCell id="r_bTo3v6G659y4a5i27W-83" value="" style="endArrow=classic;html=1;rounded=0;" parent="1" edge="1">
                    <mxGeometry width="50" height="50" relative="1" as="geometry">
                        <mxPoint x="470" y="780" as="sourcePoint"/>
                        <mxPoint x="550" y="840" as="targetPoint"/>
                    </mxGeometry>
                </mxCell>
                <mxCell id="r_bTo3v6G659y4a5i27W-84" value="" style="endArrow=classic;html=1;rounded=0;" parent="1" edge="1">
                    <mxGeometry width="50" height="50" relative="1" as="geometry">
                        <mxPoint x="470" y="780" as="sourcePoint"/>
                        <mxPoint x="550" y="900" as="targetPoint"/>
                    </mxGeometry>
                </mxCell>
                <mxCell id="r_bTo3v6G659y4a5i27W-85" value="" style="endArrow=classic;html=1;rounded=0;" parent="1" edge="1">
                    <mxGeometry width="50" height="50" relative="1" as="geometry">
                        <mxPoint x="470" y="840.28" as="sourcePoint"/>
                        <mxPoint x="550" y="700" as="targetPoint"/>
                    </mxGeometry>
                </mxCell>
                <mxCell id="r_bTo3v6G659y4a5i27W-86" value="" style="endArrow=classic;html=1;rounded=0;" parent="1" edge="1">
                    <mxGeometry width="50" height="50" relative="1" as="geometry">
                        <mxPoint x="470" y="840.28" as="sourcePoint"/>
                        <mxPoint x="550" y="780" as="targetPoint"/>
                    </mxGeometry>
                </mxCell>
                <mxCell id="r_bTo3v6G659y4a5i27W-87" value="" style="endArrow=classic;html=1;rounded=0;" parent="1" edge="1">
                    <mxGeometry width="50" height="50" relative="1" as="geometry">
                        <mxPoint x="470" y="840" as="sourcePoint"/>
                        <mxPoint x="550" y="839.72" as="targetPoint"/>
                    </mxGeometry>
                </mxCell>
                <mxCell id="r_bTo3v6G659y4a5i27W-88" value="" style="endArrow=classic;html=1;rounded=0;" parent="1" edge="1">
                    <mxGeometry width="50" height="50" relative="1" as="geometry">
                        <mxPoint x="470" y="840.28" as="sourcePoint"/>
                        <mxPoint x="550" y="900" as="targetPoint"/>
                    </mxGeometry>
                </mxCell>
                <mxCell id="r_bTo3v6G659y4a5i27W-89" value="" style="endArrow=classic;html=1;rounded=0;" parent="1" edge="1">
                    <mxGeometry width="50" height="50" relative="1" as="geometry">
                        <mxPoint x="470" y="900" as="sourcePoint"/>
                        <mxPoint x="550" y="700" as="targetPoint"/>
                    </mxGeometry>
                </mxCell>
                <mxCell id="r_bTo3v6G659y4a5i27W-90" value="" style="endArrow=classic;html=1;rounded=0;" parent="1" edge="1">
                    <mxGeometry width="50" height="50" relative="1" as="geometry">
                        <mxPoint x="470" y="900" as="sourcePoint"/>
                        <mxPoint x="550" y="780" as="targetPoint"/>
                    </mxGeometry>
                </mxCell>
                <mxCell id="r_bTo3v6G659y4a5i27W-91" value="" style="endArrow=classic;html=1;rounded=0;" parent="1" edge="1">
                    <mxGeometry width="50" height="50" relative="1" as="geometry">
                        <mxPoint x="470" y="900" as="sourcePoint"/>
                        <mxPoint x="550" y="840" as="targetPoint"/>
                    </mxGeometry>
                </mxCell>
                <mxCell id="r_bTo3v6G659y4a5i27W-92" value="K&lt;font style=&quot;font-size: 9px;&quot;&gt;10,5&lt;/font&gt;" style="text;html=1;strokeColor=none;fillColor=none;align=center;verticalAlign=middle;whiteSpace=wrap;rounded=0;" parent="1" vertex="1">
                    <mxGeometry x="480" y="670" width="60" height="30" as="geometry"/>
                </mxCell>
                <mxCell id="r_bTo3v6G659y4a5i27W-93" value="&lt;u&gt;3rd Hidden Layer&lt;/u&gt; &lt;br&gt;(5 neurons)" style="text;html=1;strokeColor=none;fillColor=none;align=center;verticalAlign=middle;whiteSpace=wrap;rounded=0;" parent="1" vertex="1">
                    <mxGeometry x="530" y="630" width="100" height="30" as="geometry"/>
                </mxCell>
                <mxCell id="r_bTo3v6G659y4a5i27W-94" value="" style="ellipse;whiteSpace=wrap;html=1;aspect=fixed;" parent="1" vertex="1">
                    <mxGeometry x="670" y="760" width="40" height="40" as="geometry"/>
                </mxCell>
                <mxCell id="r_bTo3v6G659y4a5i27W-98" value="" style="endArrow=classic;html=1;rounded=0;" parent="1" edge="1">
                    <mxGeometry width="50" height="50" relative="1" as="geometry">
                        <mxPoint x="610" y="779.72" as="sourcePoint"/>
                        <mxPoint x="660" y="779.72" as="targetPoint"/>
                    </mxGeometry>
                </mxCell>
                <mxCell id="r_bTo3v6G659y4a5i27W-99" value="" style="endArrow=classic;html=1;rounded=0;" parent="1" edge="1">
                    <mxGeometry width="50" height="50" relative="1" as="geometry">
                        <mxPoint x="610" y="700" as="sourcePoint"/>
                        <mxPoint x="660" y="780" as="targetPoint"/>
                    </mxGeometry>
                </mxCell>
                <mxCell id="r_bTo3v6G659y4a5i27W-100" value="" style="endArrow=classic;html=1;rounded=0;" parent="1" edge="1">
                    <mxGeometry width="50" height="50" relative="1" as="geometry">
                        <mxPoint x="610" y="840" as="sourcePoint"/>
                        <mxPoint x="660" y="780" as="targetPoint"/>
                    </mxGeometry>
                </mxCell>
                <mxCell id="r_bTo3v6G659y4a5i27W-101" value="" style="endArrow=classic;html=1;rounded=0;" parent="1" edge="1">
                    <mxGeometry width="50" height="50" relative="1" as="geometry">
                        <mxPoint x="610" y="899.72" as="sourcePoint"/>
                        <mxPoint x="660" y="780" as="targetPoint"/>
                    </mxGeometry>
                </mxCell>
                <mxCell id="r_bTo3v6G659y4a5i27W-102" value="&lt;u&gt;Output Layer&lt;/u&gt; &lt;br&gt;(1 neurons)" style="text;html=1;strokeColor=none;fillColor=none;align=center;verticalAlign=middle;whiteSpace=wrap;rounded=0;" parent="1" vertex="1">
                    <mxGeometry x="640" y="630" width="100" height="30" as="geometry"/>
                </mxCell>
                <mxCell id="r_bTo3v6G659y4a5i27W-103" value="" style="endArrow=classic;html=1;rounded=0;" parent="1" edge="1">
                    <mxGeometry width="50" height="50" relative="1" as="geometry">
                        <mxPoint x="720" y="779.72" as="sourcePoint"/>
                        <mxPoint x="770" y="779.72" as="targetPoint"/>
                    </mxGeometry>
                </mxCell>
                <mxCell id="r_bTo3v6G659y4a5i27W-108" value="&lt;u style=&quot;font-size: 19px;&quot;&gt;Actions Rundown Workflow&lt;/u&gt;" style="text;html=1;strokeColor=none;fillColor=none;align=center;verticalAlign=middle;whiteSpace=wrap;rounded=0;fontSize=19;" parent="1" vertex="1">
                    <mxGeometry x="117" y="1120" width="243" height="40" as="geometry"/>
                </mxCell>
                <mxCell id="r_bTo3v6G659y4a5i27W-113" style="edgeStyle=orthogonalEdgeStyle;rounded=0;orthogonalLoop=1;jettySize=auto;html=1;exitX=1;exitY=0.5;exitDx=0;exitDy=0;entryX=0;entryY=0.5;entryDx=0;entryDy=0;" parent="1" source="r_bTo3v6G659y4a5i27W-109" target="r_bTo3v6G659y4a5i27W-112" edge="1">
                    <mxGeometry relative="1" as="geometry"/>
                </mxCell>
                <mxCell id="r_bTo3v6G659y4a5i27W-109" value="ANN model" style="rounded=0;whiteSpace=wrap;html=1;" parent="1" vertex="1">
                    <mxGeometry x="120" y="1260" width="80" height="40" as="geometry"/>
                </mxCell>
                <mxCell id="r_bTo3v6G659y4a5i27W-110" value="Each individual will execute following for each company stock" style="text;html=1;strokeColor=none;fillColor=none;align=center;verticalAlign=middle;whiteSpace=wrap;rounded=0;" parent="1" vertex="1">
                    <mxGeometry x="120" y="1160" width="340" height="30" as="geometry"/>
                </mxCell>
                <mxCell id="r_bTo3v6G659y4a5i27W-124" style="edgeStyle=orthogonalEdgeStyle;rounded=0;orthogonalLoop=1;jettySize=auto;html=1;exitX=0.5;exitY=0;exitDx=0;exitDy=0;entryX=0;entryY=0.5;entryDx=0;entryDy=0;" parent="1" source="r_bTo3v6G659y4a5i27W-112" target="r_bTo3v6G659y4a5i27W-119" edge="1">
                    <mxGeometry relative="1" as="geometry"/>
                </mxCell>
                <mxCell id="r_bTo3v6G659y4a5i27W-128" style="edgeStyle=orthogonalEdgeStyle;rounded=0;orthogonalLoop=1;jettySize=auto;html=1;exitX=0.5;exitY=1;exitDx=0;exitDy=0;entryX=0;entryY=0.5;entryDx=0;entryDy=0;" parent="1" source="r_bTo3v6G659y4a5i27W-112" target="r_bTo3v6G659y4a5i27W-120" edge="1">
                    <mxGeometry relative="1" as="geometry"/>
                </mxCell>
                <mxCell id="r_bTo3v6G659y4a5i27W-129" style="edgeStyle=orthogonalEdgeStyle;rounded=0;orthogonalLoop=1;jettySize=auto;html=1;exitX=1;exitY=0.5;exitDx=0;exitDy=0;entryX=0;entryY=0.5;entryDx=0;entryDy=0;" parent="1" source="r_bTo3v6G659y4a5i27W-112" target="r_bTo3v6G659y4a5i27W-118" edge="1">
                    <mxGeometry relative="1" as="geometry"/>
                </mxCell>
                <mxCell id="r_bTo3v6G659y4a5i27W-112" value="Emotional Resiliency" style="rounded=1;whiteSpace=wrap;html=1;arcSize=0;" parent="1" vertex="1">
                    <mxGeometry x="220" y="1260" width="80" height="40" as="geometry"/>
                </mxCell>
                <mxCell id="r_bTo3v6G659y4a5i27W-126" style="edgeStyle=orthogonalEdgeStyle;rounded=0;orthogonalLoop=1;jettySize=auto;html=1;exitX=0.5;exitY=1;exitDx=0;exitDy=0;entryX=0.5;entryY=0;entryDx=0;entryDy=0;" parent="1" source="r_bTo3v6G659y4a5i27W-115" target="r_bTo3v6G659y4a5i27W-121" edge="1">
                    <mxGeometry relative="1" as="geometry"/>
                </mxCell>
                <mxCell id="r_bTo3v6G659y4a5i27W-115" value="$ Wallet" style="rounded=1;whiteSpace=wrap;html=1;arcSize=0;" parent="1" vertex="1">
                    <mxGeometry x="440" y="1200" width="80" height="40" as="geometry"/>
                </mxCell>
                <mxCell id="r_bTo3v6G659y4a5i27W-118" value="Next Stock/Halt" style="rounded=1;whiteSpace=wrap;html=1;" parent="1" vertex="1">
                    <mxGeometry x="330" y="1260" width="80" height="40" as="geometry"/>
                </mxCell>
                <mxCell id="r_bTo3v6G659y4a5i27W-125" style="edgeStyle=orthogonalEdgeStyle;rounded=0;orthogonalLoop=1;jettySize=auto;html=1;exitX=1;exitY=0.5;exitDx=0;exitDy=0;entryX=0;entryY=0.5;entryDx=0;entryDy=0;" parent="1" source="r_bTo3v6G659y4a5i27W-119" target="r_bTo3v6G659y4a5i27W-115" edge="1">
                    <mxGeometry relative="1" as="geometry"/>
                </mxCell>
                <mxCell id="r_bTo3v6G659y4a5i27W-119" value="Buy Stock" style="rounded=1;whiteSpace=wrap;html=1;" parent="1" vertex="1">
                    <mxGeometry x="330" y="1200" width="80" height="40" as="geometry"/>
                </mxCell>
                <mxCell id="r_bTo3v6G659y4a5i27W-127" style="edgeStyle=orthogonalEdgeStyle;rounded=0;orthogonalLoop=1;jettySize=auto;html=1;exitX=1;exitY=0.5;exitDx=0;exitDy=0;entryX=0;entryY=0.5;entryDx=0;entryDy=0;" parent="1" source="r_bTo3v6G659y4a5i27W-120" target="r_bTo3v6G659y4a5i27W-121" edge="1">
                    <mxGeometry relative="1" as="geometry"/>
                </mxCell>
                <mxCell id="r_bTo3v6G659y4a5i27W-120" value="Sell Stock" style="rounded=1;whiteSpace=wrap;html=1;" parent="1" vertex="1">
                    <mxGeometry x="330" y="1320" width="80" height="40" as="geometry"/>
                </mxCell>
                <mxCell id="r_bTo3v6G659y4a5i27W-121" value="Shares-Hold" style="rounded=1;whiteSpace=wrap;html=1;arcSize=0;" parent="1" vertex="1">
                    <mxGeometry x="440" y="1320" width="80" height="40" as="geometry"/>
                </mxCell>
                <mxCell id="r_bTo3v6G659y4a5i27W-132" value="If have enough money" style="text;html=1;strokeColor=none;fillColor=none;align=center;verticalAlign=middle;whiteSpace=wrap;rounded=0;fontSize=10;" parent="1" vertex="1">
                    <mxGeometry x="480" y="1260" width="40" height="40" as="geometry"/>
                </mxCell>
                <mxCell id="r_bTo3v6G659y4a5i27W-134" value="" style="endArrow=classic;html=1;rounded=0;exitX=0.25;exitY=1;exitDx=0;exitDy=0;entryX=1;entryY=0.25;entryDx=0;entryDy=0;" parent="1" source="r_bTo3v6G659y4a5i27W-115" target="r_bTo3v6G659y4a5i27W-118" edge="1">
                    <mxGeometry width="50" height="50" relative="1" as="geometry">
                        <mxPoint x="350" y="1320" as="sourcePoint"/>
                        <mxPoint x="400" y="1270" as="targetPoint"/>
                    </mxGeometry>
                </mxCell>
                <mxCell id="r_bTo3v6G659y4a5i27W-135" value="" style="endArrow=classic;html=1;rounded=0;exitX=0.25;exitY=0;exitDx=0;exitDy=0;entryX=1;entryY=0.75;entryDx=0;entryDy=0;" parent="1" source="r_bTo3v6G659y4a5i27W-121" target="r_bTo3v6G659y4a5i27W-118" edge="1">
                    <mxGeometry width="50" height="50" relative="1" as="geometry">
                        <mxPoint x="470" y="1250" as="sourcePoint"/>
                        <mxPoint x="420" y="1280" as="targetPoint"/>
                    </mxGeometry>
                </mxCell>
                <mxCell id="r_bTo3v6G659y4a5i27W-137" value="" style="endArrow=none;html=1;curved=1;" parent="1" edge="1">
                    <mxGeometry width="50" height="50" relative="1" as="geometry">
                        <mxPoint x="320" y="1599" as="sourcePoint"/>
                        <mxPoint x="520" y="1480" as="targetPoint"/>
                        <Array as="points">
                            <mxPoint x="380" y="1600"/>
                            <mxPoint x="420" y="1540"/>
                            <mxPoint x="450" y="1480"/>
                        </Array>
                    </mxGeometry>
                </mxCell>
                <mxCell id="r_bTo3v6G659y4a5i27W-138" value="" style="endArrow=block;html=1;rounded=0;startArrow=none;startFill=0;endFill=1;" parent="1" edge="1">
                    <mxGeometry width="50" height="50" relative="1" as="geometry">
                        <mxPoint x="310" y="1540" as="sourcePoint"/>
                        <mxPoint x="530" y="1540" as="targetPoint"/>
                    </mxGeometry>
                </mxCell>
                <mxCell id="r_bTo3v6G659y4a5i27W-139" value="" style="endArrow=classic;html=1;rounded=0;" parent="1" edge="1">
                    <mxGeometry width="50" height="50" relative="1" as="geometry">
                        <mxPoint x="420" y="1600" as="sourcePoint"/>
                        <mxPoint x="420" y="1470" as="targetPoint"/>
                    </mxGeometry>
                </mxCell>
                <mxCell id="r_bTo3v6G659y4a5i27W-140" value="Mutation Transformation" style="text;html=1;strokeColor=none;fillColor=none;align=center;verticalAlign=middle;whiteSpace=wrap;rounded=0;fontSize=10;" parent="1" vertex="1">
                    <mxGeometry x="45" y="405" width="75" height="30" as="geometry"/>
                </mxCell>
                <mxCell id="r_bTo3v6G659y4a5i27W-141" value="Recombination Transformation" style="text;html=1;strokeColor=none;fillColor=none;align=center;verticalAlign=middle;whiteSpace=wrap;rounded=0;fontSize=10;" parent="1" vertex="1">
                    <mxGeometry x="122.5" y="405" width="75" height="30" as="geometry"/>
                </mxCell>
                <mxCell id="r_bTo3v6G659y4a5i27W-142" value="Decide Action Phrase&amp;nbsp;" style="text;html=1;strokeColor=none;fillColor=none;align=center;verticalAlign=middle;whiteSpace=wrap;rounded=0;fontSize=10;" parent="1" vertex="1">
                    <mxGeometry x="125" y="165" width="105" height="30" as="geometry"/>
                </mxCell>
                <mxCell id="r_bTo3v6G659y4a5i27W-143" value="Update Stock Price" style="text;html=1;strokeColor=none;fillColor=none;align=center;verticalAlign=middle;whiteSpace=wrap;rounded=0;fontSize=10;" parent="1" vertex="1">
                    <mxGeometry x="122.5" y="245" width="87.5" height="30" as="geometry"/>
                </mxCell>
                <mxCell id="r_bTo3v6G659y4a5i27W-164" style="edgeStyle=orthogonalEdgeStyle;rounded=0;orthogonalLoop=1;jettySize=auto;html=1;exitX=0.5;exitY=1;exitDx=0;exitDy=0;entryX=0.5;entryY=0;entryDx=0;entryDy=0;" parent="1" source="r_bTo3v6G659y4a5i27W-145" target="r_bTo3v6G659y4a5i27W-158" edge="1">
                    <mxGeometry relative="1" as="geometry"/>
                </mxCell>
                <mxCell id="r_bTo3v6G659y4a5i27W-145" value="Initialization" style="rounded=0;whiteSpace=wrap;html=1;fontSize=14;" parent="1" vertex="1">
                    <mxGeometry x="430" y="40" width="100" height="40" as="geometry"/>
                </mxCell>
                <mxCell id="r_bTo3v6G659y4a5i27W-166" style="edgeStyle=orthogonalEdgeStyle;rounded=0;orthogonalLoop=1;jettySize=auto;html=1;exitX=0.5;exitY=1;exitDx=0;exitDy=0;entryX=0.5;entryY=0;entryDx=0;entryDy=0;" parent="1" source="r_bTo3v6G659y4a5i27W-147" target="r_bTo3v6G659y4a5i27W-150" edge="1">
                    <mxGeometry relative="1" as="geometry"/>
                </mxCell>
                <mxCell id="r_bTo3v6G659y4a5i27W-147" value="Fitness evaluation" style="rounded=0;whiteSpace=wrap;html=1;fontSize=14;" parent="1" vertex="1">
                    <mxGeometry x="420" y="201" width="120" height="39" as="geometry"/>
                </mxCell>
                <mxCell id="r_bTo3v6G659y4a5i27W-148" style="edgeStyle=orthogonalEdgeStyle;rounded=0;orthogonalLoop=1;jettySize=auto;html=1;exitX=0.5;exitY=1;exitDx=0;exitDy=0;entryX=0.5;entryY=0;entryDx=0;entryDy=0;" parent="1" source="r_bTo3v6G659y4a5i27W-150" target="r_bTo3v6G659y4a5i27W-152" edge="1">
                    <mxGeometry relative="1" as="geometry"/>
                </mxCell>
                <mxCell id="r_bTo3v6G659y4a5i27W-149" style="edgeStyle=orthogonalEdgeStyle;rounded=0;orthogonalLoop=1;jettySize=auto;html=1;exitX=1;exitY=0.5;exitDx=0;exitDy=0;entryX=0;entryY=0.5;entryDx=0;entryDy=0;" parent="1" source="r_bTo3v6G659y4a5i27W-150" target="r_bTo3v6G659y4a5i27W-159" edge="1">
                    <mxGeometry relative="1" as="geometry"/>
                </mxCell>
                <mxCell id="r_bTo3v6G659y4a5i27W-150" value="Stop?" style="rhombus;whiteSpace=wrap;html=1;fontSize=14;" parent="1" vertex="1">
                    <mxGeometry x="440" y="279" width="80" height="41" as="geometry"/>
                </mxCell>
                <mxCell id="r_bTo3v6G659y4a5i27W-151" style="edgeStyle=orthogonalEdgeStyle;rounded=0;orthogonalLoop=1;jettySize=auto;html=1;exitX=0.5;exitY=1;exitDx=0;exitDy=0;entryX=0.5;entryY=0;entryDx=0;entryDy=0;" parent="1" source="r_bTo3v6G659y4a5i27W-152" target="r_bTo3v6G659y4a5i27W-154" edge="1">
                    <mxGeometry relative="1" as="geometry"/>
                </mxCell>
                <mxCell id="r_bTo3v6G659y4a5i27W-152" value="Parent Selection" style="rounded=0;whiteSpace=wrap;html=1;fontSize=14;" parent="1" vertex="1">
                    <mxGeometry x="420" y="360" width="120" height="39" as="geometry"/>
                </mxCell>
                <mxCell id="r_bTo3v6G659y4a5i27W-153" style="edgeStyle=orthogonalEdgeStyle;rounded=0;orthogonalLoop=1;jettySize=auto;html=1;exitX=0.5;exitY=1;exitDx=0;exitDy=0;entryX=0.5;entryY=0;entryDx=0;entryDy=0;" parent="1" source="r_bTo3v6G659y4a5i27W-154" target="r_bTo3v6G659y4a5i27W-156" edge="1">
                    <mxGeometry relative="1" as="geometry"/>
                </mxCell>
                <mxCell id="r_bTo3v6G659y4a5i27W-154" value="Generate Offspring" style="rounded=0;whiteSpace=wrap;html=1;fontSize=14;" parent="1" vertex="1">
                    <mxGeometry x="410" y="440" width="140" height="39" as="geometry"/>
                </mxCell>
                <mxCell id="r_bTo3v6G659y4a5i27W-168" style="edgeStyle=orthogonalEdgeStyle;rounded=0;orthogonalLoop=1;jettySize=auto;html=1;exitX=1;exitY=0.5;exitDx=0;exitDy=0;entryX=1;entryY=0.5;entryDx=0;entryDy=0;" parent="1" source="r_bTo3v6G659y4a5i27W-156" target="r_bTo3v6G659y4a5i27W-158" edge="1">
                    <mxGeometry relative="1" as="geometry">
                        <Array as="points">
                            <mxPoint x="680" y="540"/>
                            <mxPoint x="680" y="140"/>
                        </Array>
                    </mxGeometry>
                </mxCell>
                <mxCell id="r_bTo3v6G659y4a5i27W-156" value="Environment Selection" style="rounded=0;whiteSpace=wrap;html=1;fontSize=14;" parent="1" vertex="1">
                    <mxGeometry x="400" y="520" width="160" height="40" as="geometry"/>
                </mxCell>
                <mxCell id="r_bTo3v6G659y4a5i27W-165" style="edgeStyle=orthogonalEdgeStyle;rounded=0;orthogonalLoop=1;jettySize=auto;html=1;exitX=0.5;exitY=1;exitDx=0;exitDy=0;entryX=0.5;entryY=0;entryDx=0;entryDy=0;" parent="1" source="r_bTo3v6G659y4a5i27W-158" target="r_bTo3v6G659y4a5i27W-147" edge="1">
                    <mxGeometry relative="1" as="geometry"/>
                </mxCell>
                <mxCell id="r_bTo3v6G659y4a5i27W-158" value="Actions Rundown" style="rounded=0;whiteSpace=wrap;html=1;fontSize=14;" parent="1" vertex="1">
                    <mxGeometry x="420" y="120" width="120" height="40" as="geometry"/>
                </mxCell>
                <mxCell id="r_bTo3v6G659y4a5i27W-159" value="Output Result" style="rounded=1;whiteSpace=wrap;html=1;fontSize=14;" parent="1" vertex="1">
                    <mxGeometry x="560" y="280.5" width="95" height="39.5" as="geometry"/>
                </mxCell>
                <mxCell id="r_bTo3v6G659y4a5i27W-160" value="Mutation Transformation" style="text;html=1;strokeColor=none;fillColor=none;align=center;verticalAlign=middle;whiteSpace=wrap;rounded=0;fontSize=10;" parent="1" vertex="1">
                    <mxGeometry x="405" y="400" width="75" height="30" as="geometry"/>
                </mxCell>
                <mxCell id="r_bTo3v6G659y4a5i27W-161" value="Recombination Transformation" style="text;html=1;strokeColor=none;fillColor=none;align=center;verticalAlign=middle;whiteSpace=wrap;rounded=0;fontSize=10;" parent="1" vertex="1">
                    <mxGeometry x="482.5" y="400" width="75" height="30" as="geometry"/>
                </mxCell>
                <mxCell id="r_bTo3v6G659y4a5i27W-167" value="Decide Action Phrase&amp;nbsp;" style="text;html=1;strokeColor=none;fillColor=none;align=center;verticalAlign=middle;whiteSpace=wrap;rounded=0;fontSize=10;" parent="1" vertex="1">
                    <mxGeometry x="483" y="484" width="105" height="30" as="geometry"/>
                </mxCell>
                <mxCell id="r_bTo3v6G659y4a5i27W-169" value="Update Stock Closing Price" style="text;html=1;strokeColor=none;fillColor=none;align=center;verticalAlign=middle;whiteSpace=wrap;rounded=0;fontSize=10;" parent="1" vertex="1">
                    <mxGeometry x="480" y="165" width="86" height="30" as="geometry"/>
                </mxCell>
                <mxCell id="2" value="&lt;font style=&quot;font-size: 20px;&quot;&gt;&lt;u&gt;Conceptual Architecture&amp;nbsp;&lt;/u&gt;&lt;/font&gt;" style="text;html=1;strokeColor=none;fillColor=none;align=center;verticalAlign=middle;whiteSpace=wrap;rounded=0;" parent="1" vertex="1">
                    <mxGeometry x="251" y="1660" width="281" height="30" as="geometry"/>
                </mxCell>
                <mxCell id="3" value="" style="rounded=0;whiteSpace=wrap;html=1;fontSize=20;" parent="1" vertex="1">
                    <mxGeometry x="445.5" y="1750" width="192.5" height="409" as="geometry"/>
                </mxCell>
                <mxCell id="4" value="FrontEnd" style="text;html=1;strokeColor=none;fillColor=none;align=center;verticalAlign=middle;whiteSpace=wrap;rounded=0;fontSize=20;" parent="1" vertex="1">
                    <mxGeometry x="477" y="1695" width="117" height="30" as="geometry"/>
                </mxCell>
                <mxCell id="5" value="" style="rounded=0;whiteSpace=wrap;html=1;fontSize=20;" parent="1" vertex="1">
                    <mxGeometry x="203" y="1750" width="147" height="409" as="geometry"/>
                </mxCell>
                <mxCell id="7" value="" style="rounded=0;whiteSpace=wrap;html=1;fontSize=20;" parent="1" vertex="1">
                    <mxGeometry x="56" y="1750" width="147" height="409" as="geometry"/>
                </mxCell>
                <mxCell id="9" value="BackEnd" style="text;html=1;strokeColor=none;fillColor=none;align=center;verticalAlign=middle;whiteSpace=wrap;rounded=0;fontSize=20;" parent="1" vertex="1">
                    <mxGeometry x="148" y="1697" width="117" height="30" as="geometry"/>
                </mxCell>
                <mxCell id="10" value="&lt;font style=&quot;font-size: 15px;&quot;&gt;JS + plot.js&lt;/font&gt;" style="text;html=1;strokeColor=none;fillColor=none;align=center;verticalAlign=middle;whiteSpace=wrap;rounded=0;fontSize=20;" parent="1" vertex="1">
                    <mxGeometry x="486" y="1723" width="99" height="30" as="geometry"/>
                </mxCell>
                <mxCell id="11" value="&lt;font style=&quot;font-size: 15px;&quot;&gt;Flask&lt;/font&gt;" style="text;html=1;strokeColor=none;fillColor=none;align=center;verticalAlign=middle;whiteSpace=wrap;rounded=0;fontSize=20;" parent="1" vertex="1">
                    <mxGeometry x="227" y="1723" width="99" height="30" as="geometry"/>
                </mxCell>
                <mxCell id="12" value="&lt;font style=&quot;font-size: 15px;&quot;&gt;EA Class&lt;/font&gt;" style="text;html=1;strokeColor=none;fillColor=none;align=center;verticalAlign=middle;whiteSpace=wrap;rounded=0;fontSize=20;" parent="1" vertex="1">
                    <mxGeometry x="76" y="1723" width="99" height="30" as="geometry"/>
                </mxCell>
                <mxCell id="33" style="edgeStyle=none;html=1;exitX=0.5;exitY=1;exitDx=0;exitDy=0;fontSize=14;" parent="1" source="15" target="64" edge="1">
                    <mxGeometry relative="1" as="geometry">
                        <mxPoint x="128.28571428571428" y="1876.572780064174" as="targetPoint"/>
                        <Array as="points">
                            <mxPoint x="126" y="1879"/>
                        </Array>
                    </mxGeometry>
                </mxCell>
                <mxCell id="15" value="Init" style="rounded=1;whiteSpace=wrap;html=1;fontSize=15;" parent="1" vertex="1">
                    <mxGeometry x="94.25" y="1805" width="62.5" height="25" as="geometry"/>
                </mxCell>
                <mxCell id="16" value="Init" style="rounded=1;whiteSpace=wrap;html=1;fontSize=15;" parent="1" vertex="1">
                    <mxGeometry x="245.25" y="1762" width="62.5" height="25" as="geometry"/>
                </mxCell>
                <mxCell id="28" style="edgeStyle=none;html=1;exitX=0.5;exitY=1;exitDx=0;exitDy=0;entryX=0.5;entryY=0;entryDx=0;entryDy=0;fontSize=14;" parent="1" source="17" target="27" edge="1">
                    <mxGeometry relative="1" as="geometry"/>
                </mxCell>
                <mxCell id="17" value="Init" style="rounded=1;whiteSpace=wrap;html=1;fontSize=15;" parent="1" vertex="1">
                    <mxGeometry x="508" y="1759" width="62.5" height="25" as="geometry"/>
                </mxCell>
                <mxCell id="25" value="Render Results" style="rounded=1;whiteSpace=wrap;html=1;fontSize=15;" parent="1" vertex="1">
                    <mxGeometry x="471" y="1851" width="134" height="55" as="geometry"/>
                </mxCell>
                <mxCell id="30" style="edgeStyle=none;html=1;exitX=0;exitY=0.5;exitDx=0;exitDy=0;entryX=1;entryY=0.5;entryDx=0;entryDy=0;fontSize=14;" parent="1" source="27" target="29" edge="1">
                    <mxGeometry relative="1" as="geometry"/>
                </mxCell>
                <mxCell id="27" value="&lt;font style=&quot;font-size: 14px;&quot;&gt;Users Enter Settings&lt;/font&gt;" style="rounded=1;whiteSpace=wrap;html=1;fontSize=15;" parent="1" vertex="1">
                    <mxGeometry x="472.25" y="1801" width="134" height="33" as="geometry"/>
                </mxCell>
                <mxCell id="31" style="edgeStyle=none;html=1;exitX=0;exitY=0.5;exitDx=0;exitDy=0;entryX=1;entryY=0.5;entryDx=0;entryDy=0;fontSize=14;" parent="1" source="29" target="15" edge="1">
                    <mxGeometry relative="1" as="geometry"/>
                </mxCell>
                <mxCell id="29" value="Create EA" style="rounded=1;whiteSpace=wrap;html=1;fontSize=15;" parent="1" vertex="1">
                    <mxGeometry x="236" y="1805" width="85" height="25" as="geometry"/>
                </mxCell>
                <mxCell id="34" style="edgeStyle=none;html=1;exitX=1;exitY=0.75;exitDx=0;exitDy=0;entryX=0;entryY=0.5;entryDx=0;entryDy=0;fontSize=14;" parent="1" edge="1">
                    <mxGeometry relative="1" as="geometry">
                        <mxPoint x="170.49999999999977" y="1954.2032085561495" as="sourcePoint"/>
                    </mxGeometry>
                </mxCell>
                <mxCell id="42" style="edgeStyle=none;html=1;exitX=0;exitY=0.5;exitDx=0;exitDy=0;entryX=1;entryY=0.5;entryDx=0;entryDy=0;fontSize=12;" parent="1" source="36" target="41" edge="1">
                    <mxGeometry relative="1" as="geometry"/>
                </mxCell>
                <mxCell id="36" value="&lt;font style=&quot;font-size: 12px;&quot;&gt;Next Generation&lt;/font&gt;" style="rounded=1;whiteSpace=wrap;html=1;fontSize=15;" parent="1" vertex="1">
                    <mxGeometry x="456.25" y="1945" width="93.75" height="26" as="geometry"/>
                </mxCell>
                <mxCell id="62" style="edgeStyle=none;html=1;exitX=0;exitY=0.5;exitDx=0;exitDy=0;" parent="1" source="38" target="58" edge="1">
                    <mxGeometry relative="1" as="geometry"/>
                </mxCell>
                <mxCell id="38" value="&lt;span style=&quot;font-size: 12px;&quot;&gt;Termination/Restart&lt;/span&gt;" style="rounded=1;whiteSpace=wrap;html=1;fontSize=15;" parent="1" vertex="1">
                    <mxGeometry x="473.5" y="2043" width="124" height="26" as="geometry"/>
                </mxCell>
                <mxCell id="40" value="" style="endArrow=classic;html=1;fontSize=12;entryX=0.509;entryY=-0.003;entryDx=0;entryDy=0;entryPerimeter=0;exitX=0.25;exitY=1;exitDx=0;exitDy=0;" parent="1" source="25" target="36" edge="1">
                    <mxGeometry width="50" height="50" relative="1" as="geometry">
                        <mxPoint x="520" y="1947.25" as="sourcePoint"/>
                        <mxPoint x="520" y="1967" as="targetPoint"/>
                    </mxGeometry>
                </mxCell>
                <mxCell id="52" style="edgeStyle=none;html=1;exitX=0;exitY=0.5;exitDx=0;exitDy=0;entryX=1;entryY=0.25;entryDx=0;entryDy=0;" parent="1" source="41" target="44" edge="1">
                    <mxGeometry relative="1" as="geometry"/>
                </mxCell>
                <mxCell id="41" value="Tick()" style="rounded=1;whiteSpace=wrap;html=1;fontSize=15;" parent="1" vertex="1">
                    <mxGeometry x="247.25" y="1945" width="62.5" height="25" as="geometry"/>
                </mxCell>
                <mxCell id="43" value="" style="group" parent="1" vertex="1" connectable="0">
                    <mxGeometry x="68.5" y="1936" width="120" height="86" as="geometry"/>
                </mxCell>
                <mxCell id="44" value="" style="rounded=1;whiteSpace=wrap;html=1;fontSize=15;dashed=1;" parent="43" vertex="1">
                    <mxGeometry width="120" height="86" as="geometry"/>
                </mxCell>
                <mxCell id="45" value="Calc()" style="rounded=1;whiteSpace=wrap;html=1;fontSize=15;" parent="43" vertex="1">
                    <mxGeometry x="28.75" y="9.657754010695188" width="62.5" height="22.994652406417114" as="geometry"/>
                </mxCell>
                <mxCell id="46" value="call finish(res)" style="text;html=1;strokeColor=none;fillColor=none;align=center;verticalAlign=middle;whiteSpace=wrap;rounded=0;fontSize=15;" parent="43" vertex="1">
                    <mxGeometry x="15.5" y="42.77005347593583" width="87" height="27.593582887700535" as="geometry"/>
                </mxCell>
                <mxCell id="55" style="edgeStyle=none;html=1;exitX=1;exitY=0.5;exitDx=0;exitDy=0;entryX=0.659;entryY=1.003;entryDx=0;entryDy=0;entryPerimeter=0;" parent="1" source="53" target="25" edge="1">
                    <mxGeometry relative="1" as="geometry">
                        <Array as="points">
                            <mxPoint x="559" y="2001"/>
                        </Array>
                    </mxGeometry>
                </mxCell>
                <mxCell id="53" value="Finish()" style="rounded=1;whiteSpace=wrap;html=1;fontSize=15;" parent="1" vertex="1">
                    <mxGeometry x="247.25" y="1988" width="62.5" height="25" as="geometry"/>
                </mxCell>
                <mxCell id="54" style="edgeStyle=none;html=1;exitX=1;exitY=0.75;exitDx=0;exitDy=0;entryX=0;entryY=0.5;entryDx=0;entryDy=0;" parent="1" source="46" target="53" edge="1">
                    <mxGeometry relative="1" as="geometry"/>
                </mxCell>
                <mxCell id="57" value="" style="endArrow=classic;html=1;entryX=0.887;entryY=0.048;entryDx=0;entryDy=0;entryPerimeter=0;" parent="1" target="38" edge="1">
                    <mxGeometry width="50" height="50" relative="1" as="geometry">
                        <mxPoint x="585" y="1906" as="sourcePoint"/>
                        <mxPoint x="585" y="2026.75" as="targetPoint"/>
                    </mxGeometry>
                </mxCell>
                <mxCell id="61" style="edgeStyle=none;html=1;exitX=0.25;exitY=1;exitDx=0;exitDy=0;entryX=0.75;entryY=0;entryDx=0;entryDy=0;" parent="1" source="58" target="59" edge="1">
                    <mxGeometry relative="1" as="geometry"/>
                </mxCell>
                <mxCell id="58" value="&lt;span style=&quot;font-size: 15px;&quot;&gt;Tick(Stop)&lt;/span&gt;" style="rounded=1;whiteSpace=wrap;html=1;" parent="1" vertex="1">
                    <mxGeometry x="234" y="2043" width="89" height="25" as="geometry"/>
                </mxCell>
                <mxCell id="59" value="&lt;span style=&quot;font-size: 15px;&quot;&gt;Destroy(EA)&lt;/span&gt;" style="rounded=1;whiteSpace=wrap;html=1;" parent="1" vertex="1">
                    <mxGeometry x="140" y="2091" width="125" height="25" as="geometry"/>
                </mxCell>
                <mxCell id="67" style="edgeStyle=none;html=1;exitX=1;exitY=0.5;exitDx=0;exitDy=0;" parent="1" source="64" target="25" edge="1">
                    <mxGeometry relative="1" as="geometry"/>
                </mxCell>
                <mxCell id="64" value="Ready()" style="rounded=1;whiteSpace=wrap;html=1;fontSize=15;" parent="1" vertex="1">
                    <mxGeometry x="236" y="1866" width="85" height="25" as="geometry"/>
                </mxCell>
                <mxCell id="68" value="" style="ellipse;whiteSpace=wrap;html=1;aspect=fixed;" vertex="1" parent="1">
                    <mxGeometry x="978" y="705" width="40" height="40" as="geometry"/>
                </mxCell>
                <mxCell id="69" value="" style="ellipse;whiteSpace=wrap;html=1;aspect=fixed;" vertex="1" parent="1">
                    <mxGeometry x="978" y="785" width="40" height="40" as="geometry"/>
                </mxCell>
                <mxCell id="70" value="" style="endArrow=none;dashed=1;html=1;dashPattern=1 3;strokeWidth=2;rounded=0;" edge="1" parent="1">
                    <mxGeometry width="50" height="50" relative="1" as="geometry">
                        <mxPoint x="998" y="895" as="sourcePoint"/>
                        <mxPoint x="998" y="835" as="targetPoint"/>
                    </mxGeometry>
                </mxCell>
                <mxCell id="71" value="" style="ellipse;whiteSpace=wrap;html=1;aspect=fixed;" vertex="1" parent="1">
                    <mxGeometry x="978" y="905" width="40" height="40" as="geometry"/>
                </mxCell>
                <mxCell id="72" value="" style="endArrow=classic;html=1;rounded=0;" edge="1" parent="1">
                    <mxGeometry width="50" height="50" relative="1" as="geometry">
                        <mxPoint x="918" y="724.72" as="sourcePoint"/>
                        <mxPoint x="968" y="724.72" as="targetPoint"/>
                    </mxGeometry>
                </mxCell>
                <mxCell id="73" value="" style="endArrow=classic;html=1;rounded=0;" edge="1" parent="1">
                    <mxGeometry width="50" height="50" relative="1" as="geometry">
                        <mxPoint x="918" y="804.72" as="sourcePoint"/>
                        <mxPoint x="968" y="804.72" as="targetPoint"/>
                    </mxGeometry>
                </mxCell>
                <mxCell id="74" value="" style="endArrow=classic;html=1;rounded=0;" edge="1" parent="1">
                    <mxGeometry width="50" height="50" relative="1" as="geometry">
                        <mxPoint x="918" y="924.72" as="sourcePoint"/>
                        <mxPoint x="968" y="924.72" as="targetPoint"/>
                    </mxGeometry>
                </mxCell>
                <mxCell id="75" value="&lt;u&gt;Input Layer&lt;/u&gt; &lt;br&gt;(30 neurons)" style="text;html=1;strokeColor=none;fillColor=none;align=center;verticalAlign=middle;whiteSpace=wrap;rounded=0;" vertex="1" parent="1">
                    <mxGeometry x="948" y="655" width="100" height="30" as="geometry"/>
                </mxCell>
                <mxCell id="76" value="" style="ellipse;whiteSpace=wrap;html=1;aspect=fixed;" vertex="1" parent="1">
                    <mxGeometry x="1118" y="705" width="40" height="40" as="geometry"/>
                </mxCell>
                <mxCell id="77" value="" style="ellipse;whiteSpace=wrap;html=1;aspect=fixed;" vertex="1" parent="1">
                    <mxGeometry x="1118" y="785" width="40" height="40" as="geometry"/>
                </mxCell>
                <mxCell id="78" value="" style="endArrow=none;dashed=1;html=1;dashPattern=1 3;strokeWidth=2;rounded=0;" edge="1" parent="1">
                    <mxGeometry width="50" height="50" relative="1" as="geometry">
                        <mxPoint x="1138" y="895" as="sourcePoint"/>
                        <mxPoint x="1138" y="835" as="targetPoint"/>
                    </mxGeometry>
                </mxCell>
                <mxCell id="79" value="" style="ellipse;whiteSpace=wrap;html=1;aspect=fixed;" vertex="1" parent="1">
                    <mxGeometry x="1118" y="905" width="40" height="40" as="geometry"/>
                </mxCell>
                <mxCell id="80" value="" style="endArrow=classic;html=1;rounded=0;" edge="1" parent="1">
                    <mxGeometry width="50" height="50" relative="1" as="geometry">
                        <mxPoint x="1028" y="725" as="sourcePoint"/>
                        <mxPoint x="1108" y="724.72" as="targetPoint"/>
                    </mxGeometry>
                </mxCell>
                <mxCell id="81" value="" style="endArrow=classic;html=1;rounded=0;" edge="1" parent="1">
                    <mxGeometry width="50" height="50" relative="1" as="geometry">
                        <mxPoint x="1028" y="805" as="sourcePoint"/>
                        <mxPoint x="1108" y="804.72" as="targetPoint"/>
                    </mxGeometry>
                </mxCell>
                <mxCell id="82" value="" style="endArrow=classic;html=1;rounded=0;" edge="1" parent="1">
                    <mxGeometry width="50" height="50" relative="1" as="geometry">
                        <mxPoint x="1028" y="925" as="sourcePoint"/>
                        <mxPoint x="1108" y="924.72" as="targetPoint"/>
                    </mxGeometry>
                </mxCell>
                <mxCell id="83" value="" style="endArrow=classic;html=1;rounded=0;" edge="1" parent="1">
                    <mxGeometry width="50" height="50" relative="1" as="geometry">
                        <mxPoint x="1028" y="725" as="sourcePoint"/>
                        <mxPoint x="1108" y="805" as="targetPoint"/>
                    </mxGeometry>
                </mxCell>
                <mxCell id="84" value="" style="endArrow=classic;html=1;rounded=0;" edge="1" parent="1">
                    <mxGeometry width="50" height="50" relative="1" as="geometry">
                        <mxPoint x="1028" y="725" as="sourcePoint"/>
                        <mxPoint x="1108" y="865" as="targetPoint"/>
                    </mxGeometry>
                </mxCell>
                <mxCell id="85" value="" style="endArrow=classic;html=1;rounded=0;" edge="1" parent="1">
                    <mxGeometry width="50" height="50" relative="1" as="geometry">
                        <mxPoint x="1028" y="725" as="sourcePoint"/>
                        <mxPoint x="1108" y="925" as="targetPoint"/>
                    </mxGeometry>
                </mxCell>
                <mxCell id="86" value="" style="endArrow=classic;html=1;rounded=0;" edge="1" parent="1">
                    <mxGeometry width="50" height="50" relative="1" as="geometry">
                        <mxPoint x="1028" y="805" as="sourcePoint"/>
                        <mxPoint x="1108" y="725" as="targetPoint"/>
                    </mxGeometry>
                </mxCell>
                <mxCell id="87" value="" style="endArrow=classic;html=1;rounded=0;" edge="1" parent="1">
                    <mxGeometry width="50" height="50" relative="1" as="geometry">
                        <mxPoint x="1028" y="805" as="sourcePoint"/>
                        <mxPoint x="1108" y="865" as="targetPoint"/>
                    </mxGeometry>
                </mxCell>
                <mxCell id="88" value="" style="endArrow=classic;html=1;rounded=0;" edge="1" parent="1">
                    <mxGeometry width="50" height="50" relative="1" as="geometry">
                        <mxPoint x="1028" y="805" as="sourcePoint"/>
                        <mxPoint x="1108" y="925" as="targetPoint"/>
                    </mxGeometry>
                </mxCell>
                <mxCell id="89" value="" style="endArrow=classic;html=1;rounded=0;" edge="1" parent="1">
                    <mxGeometry width="50" height="50" relative="1" as="geometry">
                        <mxPoint x="1028" y="865.28" as="sourcePoint"/>
                        <mxPoint x="1108" y="725" as="targetPoint"/>
                    </mxGeometry>
                </mxCell>
                <mxCell id="90" value="" style="endArrow=classic;html=1;rounded=0;" edge="1" parent="1">
                    <mxGeometry width="50" height="50" relative="1" as="geometry">
                        <mxPoint x="1028" y="865.28" as="sourcePoint"/>
                        <mxPoint x="1108" y="805" as="targetPoint"/>
                    </mxGeometry>
                </mxCell>
                <mxCell id="91" value="" style="endArrow=classic;html=1;rounded=0;" edge="1" parent="1">
                    <mxGeometry width="50" height="50" relative="1" as="geometry">
                        <mxPoint x="1028" y="865" as="sourcePoint"/>
                        <mxPoint x="1108" y="864.72" as="targetPoint"/>
                    </mxGeometry>
                </mxCell>
                <mxCell id="92" value="" style="endArrow=classic;html=1;rounded=0;" edge="1" parent="1">
                    <mxGeometry width="50" height="50" relative="1" as="geometry">
                        <mxPoint x="1028" y="865.28" as="sourcePoint"/>
                        <mxPoint x="1108" y="925" as="targetPoint"/>
                    </mxGeometry>
                </mxCell>
                <mxCell id="93" value="" style="endArrow=classic;html=1;rounded=0;" edge="1" parent="1">
                    <mxGeometry width="50" height="50" relative="1" as="geometry">
                        <mxPoint x="1028" y="925" as="sourcePoint"/>
                        <mxPoint x="1108" y="725" as="targetPoint"/>
                    </mxGeometry>
                </mxCell>
                <mxCell id="94" value="" style="endArrow=classic;html=1;rounded=0;" edge="1" parent="1">
                    <mxGeometry width="50" height="50" relative="1" as="geometry">
                        <mxPoint x="1028" y="925" as="sourcePoint"/>
                        <mxPoint x="1108" y="805" as="targetPoint"/>
                    </mxGeometry>
                </mxCell>
                <mxCell id="95" value="" style="endArrow=classic;html=1;rounded=0;" edge="1" parent="1">
                    <mxGeometry width="50" height="50" relative="1" as="geometry">
                        <mxPoint x="1028" y="925" as="sourcePoint"/>
                        <mxPoint x="1108" y="865" as="targetPoint"/>
                    </mxGeometry>
                </mxCell>
                <mxCell id="96" value="K&lt;font style=&quot;font-size: 9px;&quot;&gt;30,10&lt;/font&gt;" style="text;html=1;strokeColor=none;fillColor=none;align=center;verticalAlign=middle;whiteSpace=wrap;rounded=0;" vertex="1" parent="1">
                    <mxGeometry x="1038" y="695" width="60" height="30" as="geometry"/>
                </mxCell>
                <mxCell id="97" value="&lt;u&gt;Hidden Layer&lt;/u&gt; &lt;br&gt;(10 neurons)" style="text;html=1;strokeColor=none;fillColor=none;align=center;verticalAlign=middle;whiteSpace=wrap;rounded=0;" vertex="1" parent="1">
                    <mxGeometry x="1088" y="655" width="100" height="30" as="geometry"/>
                </mxCell>
                <mxCell id="128" value="" style="ellipse;whiteSpace=wrap;html=1;aspect=fixed;" vertex="1" parent="1">
                    <mxGeometry x="1237" y="785" width="40" height="40" as="geometry"/>
                </mxCell>
                <mxCell id="129" value="" style="endArrow=classic;html=1;rounded=0;" edge="1" parent="1">
                    <mxGeometry width="50" height="50" relative="1" as="geometry">
                        <mxPoint x="1177" y="804.72" as="sourcePoint"/>
                        <mxPoint x="1227" y="804.72" as="targetPoint"/>
                    </mxGeometry>
                </mxCell>
                <mxCell id="130" value="" style="endArrow=classic;html=1;rounded=0;" edge="1" parent="1">
                    <mxGeometry width="50" height="50" relative="1" as="geometry">
                        <mxPoint x="1177" y="725" as="sourcePoint"/>
                        <mxPoint x="1227" y="805" as="targetPoint"/>
                    </mxGeometry>
                </mxCell>
                <mxCell id="131" value="" style="endArrow=classic;html=1;rounded=0;" edge="1" parent="1">
                    <mxGeometry width="50" height="50" relative="1" as="geometry">
                        <mxPoint x="1177" y="865" as="sourcePoint"/>
                        <mxPoint x="1227" y="805" as="targetPoint"/>
                    </mxGeometry>
                </mxCell>
                <mxCell id="132" value="" style="endArrow=classic;html=1;rounded=0;" edge="1" parent="1">
                    <mxGeometry width="50" height="50" relative="1" as="geometry">
                        <mxPoint x="1177" y="924.72" as="sourcePoint"/>
                        <mxPoint x="1227" y="805" as="targetPoint"/>
                    </mxGeometry>
                </mxCell>
                <mxCell id="133" value="&lt;u&gt;Output Layer&lt;/u&gt; &lt;br&gt;(1 neurons)" style="text;html=1;strokeColor=none;fillColor=none;align=center;verticalAlign=middle;whiteSpace=wrap;rounded=0;" vertex="1" parent="1">
                    <mxGeometry x="1207" y="655" width="100" height="30" as="geometry"/>
                </mxCell>
                <mxCell id="134" value="" style="endArrow=classic;html=1;rounded=0;" edge="1" parent="1">
                    <mxGeometry width="50" height="50" relative="1" as="geometry">
                        <mxPoint x="1287" y="804.72" as="sourcePoint"/>
                        <mxPoint x="1337" y="804.72" as="targetPoint"/>
                    </mxGeometry>
                </mxCell>
            </root>
        </mxGraphModel>
    </diagram>
</mxfile>